<?xml version="1.0" standalone="no"?>
<!DOCTYPE svg PUBLIC "-//W3C//DTD SVG 20010904//EN"
 "http://www.w3.org/TR/2001/REC-SVG-20010904/DTD/svg10.dtd">
<svg version="1.0" xmlns="http://www.w3.org/2000/svg"
 width="512.000000pt" height="512.000000pt" viewBox="0 0 512.000000 512.000000"
 preserveAspectRatio="xMidYMid meet">
<metadata>
Created by potrace 1.14, written by Peter Selinger 2001-2017
</metadata>
<g transform="translate(0.000000,512.000000) scale(0.100000,-0.100000)"
fill="#000000" stroke="none">
<path d="M2344 5105 c-168 -30 -363 -105 -496 -191 -265 -170 -455 -414 -553
-707 -59 -177 -67 -243 -72 -644 l-6 -363 -81 0 c-149 0 -248 -41 -352 -144
-73 -74 -106 -129 -130 -219 -21 -77 -21 -2397 0 -2474 24 -90 57 -145 130
-219 73 -72 130 -106 221 -130 78 -21 3013 -20 3103 1 171 41 309 175 354 344
15 61 17 162 17 1241 0 1310 3 1244 -69 1364 -92 152 -248 235 -442 236 l-77
0 -4 393 c-3 318 -7 405 -20 462 -84 356 -275 639 -562 835 -138 94 -284 157
-455 196 -135 32 -383 41 -506 19z m393 -430 c280 -59 507 -233 633 -485 86
-171 100 -266 100 -677 l0 -313 -906 0 -905 0 3 383 4 382 28 85 c69 211 198
381 375 495 107 69 202 105 366 139 50 10 240 5 302 -9z m53 -2347 c50 -26 90
-84 90 -133 0 -16 -34 -176 -75 -355 -41 -179 -113 -492 -160 -697 -93 -405
-96 -417 -128 -452 -91 -99 -260 -43 -274 90 -3 32 17 135 72 369 42 179 117
500 166 714 62 269 97 399 111 419 23 32 89 66 128 67 14 0 46 -10 70 -22z
m-903 -214 c73 -35 106 -140 68 -214 -8 -15 -101 -106 -207 -201 -106 -94
-201 -179 -211 -189 -16 -15 -6 -27 193 -205 116 -103 218 -201 226 -216 18
-36 18 -112 -1 -148 -37 -72 -127 -107 -197 -78 -52 22 -602 520 -623 564 -21
44 -16 114 12 152 25 33 548 508 588 532 37 23 105 24 152 3z m1498 -3 c54
-33 569 -503 592 -540 26 -41 30 -96 9 -144 -15 -38 -543 -519 -608 -554 -47
-26 -85 -29 -131 -9 -90 38 -126 145 -79 233 6 11 106 104 221 208 163 146
208 192 198 201 -6 6 -101 91 -210 189 -109 97 -204 190 -212 206 -22 41 -19
117 5 157 42 69 147 95 215 53z"/>
</g>
</svg>
